<?xml version="1.0" encoding="utf-8"?>
<!-- Generator: Adobe Illustrator 16.0.0, SVG Export Plug-In . SVG Version: 6.00 Build 0)  -->
<!DOCTYPE svg PUBLIC "-//W3C//DTD SVG 1.1//EN" "http://www.w3.org/Graphics/SVG/1.1/DTD/svg11.dtd">
<svg version="1.1" xmlns="http://www.w3.org/2000/svg" xmlns:xlink="http://www.w3.org/1999/xlink" x="0px" y="0px" width="200px"
	 height="50px" viewBox="268.25 136 200 50" enable-background="new 268.25 136 200 50" xml:space="preserve">
<g id="Layer_2">
</g>
<g id="Layer_1">
	<g>
		<polygon fill="#6D6E71" points="269.141,149.887 270.462,153.25 288.607,157.094 292.332,143.396 		"/>
		<polygon fill="#A7A9AC" points="309.515,161.42 303.147,138.23 299.661,139.553 295.817,157.816 		"/>
		<polygon fill="#FDB913" points="280.796,183.77 284.161,182.568 288.006,164.305 274.307,160.58 		"/>
		<polygon fill="#C6920E" points="314.682,172.236 313.48,168.631 295.216,164.906 291.49,178.604 		"/>
		<polygon fill="#FFFFFF" points="319.764,153.66 330.297,153.66 330.297,154.746 321.252,154.746 321.252,160.496 328.843,160.496 
			328.843,161.58 321.252,161.58 321.252,167.752 330.297,167.752 330.297,168.838 319.764,168.838 		"/>
		<path fill="#FFFFFF" d="M332.876,167.738c1.078,0.162,1.908,0.266,2.619,0.266c0.134,0,0.262-0.006,0.39-0.012
			c1.223-0.061,2.192-0.209,2.196-1.672c0.005-0.42-0.111-0.938-0.629-1.357c-0.433-0.352-1.588-1.15-2.593-1.816
			c-1.289-0.842-1.943-1.439-1.943-2.822c0-0.1,0.003-0.201,0.008-0.311c0.069-1.078,1.086-2.236,3.548-2.236
			c1.163,0,1.85,0.053,3.027,0.219l-0.195,0.939c-0.996-0.152-1.659-0.229-2.432-0.229c-0.128,0-0.258,0.004-0.395,0.006
			c-1.479,0.006-2.043,0.631-2.091,1.369c-0.006,0.098-0.008,0.188-0.008,0.275c0,0.924,0.354,1.301,1.338,1.959
			c1.158,0.758,2.352,1.592,2.745,1.91c0.908,0.713,1.083,1.574,1.083,2.098c0.001,2.277-2.131,2.535-3.587,2.602
			c-0.127,0.006-0.258,0.008-0.389,0.008c-0.865,0-1.82-0.117-2.886-0.262L332.876,167.738z"/>
		<path fill="#FFFFFF" d="M343.904,173.043h-1.493v-15.111c1.023-0.068,2.137-0.148,3.242-0.148c4.745,0,5.838,1.871,5.838,5.848
			c0,3.672-0.877,5.381-4.431,5.381c-1.243,0-2.436-0.299-3.158-0.523L343.904,173.043L343.904,173.043z M343.904,167.504
			c0.727,0.227,1.915,0.535,3.157,0.535c2.417,0,2.919-1.326,2.919-4.449c0-3.256-0.553-4.793-4.191-4.82
			c-0.479-0.006-1.295,0.031-1.884,0.062L343.904,167.504z"/>
		<path fill="#FFFFFF" d="M354.677,158.084c1.292-0.139,2.719-0.283,3.96-0.283c2.643,0,3.849,1.217,3.849,3.441v6.881
			c-1.326,0.428-3.078,0.91-5.28,0.91c-2.073,0-3.385-1.119-3.385-3.232c0-1.84,1.041-2.963,3.624-3.188l3.578-0.332v-1.066
			c0-1.695-0.799-2.395-2.387-2.395c-1.077,0-2.442,0.123-3.765,0.262L354.677,158.084z M361.022,163.275l-3.422,0.293
			c-1.702,0.154-2.269,0.959-2.269,2.232c0,1.389,0.728,2.242,1.92,2.256c1.44,0,2.902-0.334,3.771-0.568V163.275L361.022,163.275z"
			/>
		<path fill="#FFFFFF" d="M368.706,169.033c-3.086-0.219-3.867-1.961-3.867-5.609c0-4.102,0.983-5.816,5.107-5.623
			c1.027,0.041,2.871,0.406,3.124,0.447l-0.047,0.902c-0.206,0.02-2.18-0.359-3.104-0.402c-3.017-0.137-3.578,1.24-3.578,4.676
			c0,3.438,0.559,4.793,3.578,4.656c0.903-0.041,2.72-0.441,3.088-0.512l0.065,1.01c-0.173,0.031-1.919,0.391-2.906,0.434
			l-0.575,0.043l-0.426,0.738c0.92,0.041,1.124,0.389,1.124,1.322c0,1.039-0.375,1.43-1.649,1.43c-0.092,0-0.658-0.02-1.116-0.107
			l0.073-0.629l1.066,0.043c0.621,0,0.654-0.176,0.654-0.738s-0.071-0.65-0.654-0.65h-0.698L368.706,169.033z"/>
		<path fill="#FFFFFF" d="M385.023,163.227c0,3.982-1.005,5.807-4.919,5.807c-3.917,0-5.015-1.566-5.015-5.848
			c0-3.965,1.573-5.387,5.015-5.387C383.229,157.801,385.023,159.322,385.023,163.227 M380.104,168.057
			c2.963,0,3.45-1.504,3.45-4.83c0-3.293-1.293-4.449-3.45-4.449c-2.567,0-3.544,0.938-3.544,4.408
			C376.558,166.771,377.134,168.057,380.104,168.057L380.104,168.057z"/>
		<path fill="#FFFFFF" d="M405.199,168.801c-0.643,0.146-1.38,0.211-2.23,0.211c-5.341,0-6.736-2.135-6.736-8.082
			c0-5.504,2.039-7.453,6.736-7.453c4.253,0,6.601,2.092,6.601,7.512c0,3.979-0.631,6.361-2.982,7.396l1.851,2.881l-1.313,0.566
			L405.199,168.801z M397.717,160.928c0,5.035,0.879,7.008,5.252,7.008c4.376,0,5.115-2.297,5.115-6.947
			c0-4.686-1.953-6.441-5.115-6.441C399.239,154.547,397.717,156.012,397.717,160.928L397.717,160.928z"/>
		<path fill="#FFFFFF" d="M422.022,168.119c-1.702,0.643-3.041,0.936-4.272,0.936c-3.517,0-4.786-1.711-4.786-5.381v-5.66h1.513
			v5.66c0,3.109,0.823,4.406,3.273,4.406c0.919,0,2.09-0.307,2.808-0.533v-9.533h1.463L422.022,168.119L422.022,168.119z"/>
		<path fill="#FFFFFF" d="M425.485,158.084c1.294-0.139,2.722-0.283,3.962-0.283c2.641,0,3.851,1.217,3.851,3.441v6.881
			c-1.329,0.428-3.079,0.91-5.282,0.91c-2.073,0-3.384-1.119-3.384-3.232c0-1.84,1.04-2.963,3.624-3.188l3.577-0.332v-1.066
			c0-1.695-0.798-2.395-2.386-2.395c-1.079,0-2.442,0.123-3.766,0.262L425.485,158.084z M431.832,163.275l-3.422,0.293
			c-1.704,0.154-2.269,0.959-2.269,2.232c0,1.389,0.728,2.242,1.919,2.256c1.441,0,2.902-0.334,3.771-0.568V163.275L431.832,163.275
			z"/>
		<path fill="#FDB913" d="M438.567,155.221v2.797h2.547v0.979h-2.547v6.414c0,2.146,0.175,2.654,1.108,2.67
			c0.037,0.002,0.079,0.004,0.125,0.004c0.298,0,0.753-0.061,1.306-0.215l-0.174,0.992c-0.654,0.129-1.099,0.172-1.416,0.172
			c-2.036,0-2.41-0.955-2.41-3.621v-6.414h-2.305v-0.98h2.305v-2.795L438.567,155.221L438.567,155.221z"/>
		<path fill="#FDB913" d="M445.444,155.221v2.797h2.548v0.979h-2.548v6.414c0,2.146,0.175,2.654,1.11,2.67
			c0.036,0.002,0.078,0.004,0.123,0.004c0.298,0,0.751-0.061,1.307-0.215l-0.175,0.992c-0.653,0.129-1.099,0.172-1.413,0.172
			c-2.038,0-2.413-0.955-2.413-3.621v-6.414h-2.304v-0.98h2.304v-2.795L445.444,155.221L445.444,155.221z"/>
		<path fill="#FFFFFF" d="M450.079,158.736c1.709-0.641,3.025-0.938,4.62-0.938c0.36-0.002,0.636,0.006,1.185,0.072l-0.179,0.98
			c-0.447-0.061-0.705-0.076-1.004-0.076c-1.243,0-2.432,0.307-3.157,0.535v9.527h-1.463L450.079,158.736L450.079,158.736z"/>
		<g>
			<g>
				<g>
					<g>
						<path fill="#FFFFFF" d="M467.36,163.227c0,3.982-1.004,5.807-4.917,5.807c-3.917,0-5.014-1.566-5.014-5.848
							c0-3.965,1.57-5.387,5.014-5.387C465.568,157.801,467.36,159.322,467.36,163.227 M465.893,163.227
							c0-3.293-1.293-4.449-3.45-4.449c-2.567,0-3.545,0.938-3.545,4.408c0,3.586,0.575,4.871,3.545,4.871
							C465.403,168.057,465.893,166.553,465.893,163.227"/>
					</g>
				</g>
			</g>
		</g>
		<g>
			<path fill="#FFFFFF" d="M373.369,181.467h-0.802v-1.252c0-0.279-0.089-0.467-0.269-0.566c-0.124-0.068-0.336-0.102-0.638-0.098
				h-0.134v1.916h-0.835v-5.135l1.418-0.008c0.331,0,0.616,0.115,0.849,0.346c0.235,0.232,0.353,0.512,0.353,0.838v0.881
				c0,0.166-0.048,0.33-0.145,0.498c-0.096,0.188-0.214,0.309-0.359,0.365c0.151,0.066,0.281,0.176,0.391,0.328
				c0.113,0.15,0.171,0.299,0.171,0.453V181.467L373.369,181.467z M376.222,180.734v0.732h-2.429v-5.111l2.429-0.008v0.73h-1.594
				v1.381h1.594v0.732h-1.594v1.543H376.222L376.222,180.734z M379.192,176.355l-0.92,5.119l-0.858-0.008l-0.889-5.111h0.835
				l0.488,3.465l0.512-3.465H379.192z M381.926,180.734v0.732h-2.427v-5.111l2.427-0.008v0.73h-1.594v1.381h1.594v0.732h-1.594
				v1.543H381.926L381.926,180.734z M384.898,177.773h-0.801c0-0.246-0.024-0.428-0.071-0.545c-0.081-0.18-0.229-0.268-0.45-0.268
				c-0.197-0.002-0.333,0.068-0.406,0.205c-0.056,0.1-0.081,0.256-0.081,0.473c0,0.287,0.02,0.498,0.064,0.627
				c0.076,0.23,0.229,0.346,0.459,0.346c0.333,0,0.63,0.115,0.894,0.342c0.264,0.23,0.395,0.504,0.395,0.832v0.645
				c0,0.324-0.117,0.604-0.354,0.832c-0.233,0.23-0.52,0.348-0.851,0.348h-0.21c-0.332,0-0.614-0.117-0.852-0.348
				c-0.235-0.229-0.354-0.51-0.354-0.834v-0.34h0.8c-0.004,0.541,0.168,0.811,0.521,0.811c0.204,0,0.343-0.072,0.416-0.221
				c0.049-0.092,0.073-0.258,0.073-0.486c0-0.576-0.17-0.865-0.512-0.865c-0.341,0-0.643-0.113-0.905-0.342
				s-0.396-0.504-0.396-0.828v-0.727c0-0.322,0.119-0.604,0.354-0.832c0.237-0.23,0.521-0.348,0.852-0.348h0.21
				c0.331,0,0.617,0.117,0.851,0.348c0.235,0.23,0.354,0.51,0.354,0.834V177.773L384.898,177.773z M387.693,177.002h-0.807v4.465
				h-0.835v-4.465h-0.8l-0.008-0.654h2.441L387.693,177.002z M388.958,181.467h-0.833v-5.119l0.833,0.008V181.467z M393.431,181.467
				h-0.832v-2.607l-0.722,2.607h-0.835l-0.657-2.664v2.664h-0.832v-5.111h0.891l1.062,3.625l1.011-3.625h0.914V181.467
				L393.431,181.467z M396.331,180.734v0.732h-2.429v-5.111l2.429-0.008v0.73h-1.594v1.381h1.594v0.732h-1.594v1.543H396.331
				L396.331,180.734z M399.216,181.467h-0.851l-0.841-2.789v2.789h-0.769l-0.023-5.111h0.852l0.862,2.857v-2.857h0.77V181.467
				L399.216,181.467z M402.133,177.002h-0.812v4.465h-0.832v-4.465h-0.802l-0.008-0.654h2.445L402.133,177.002z M405.128,180.357
				c0,0.326-0.118,0.604-0.357,0.834c-0.237,0.23-0.52,0.346-0.844,0.346h-0.209c-0.33,0-0.616-0.115-0.848-0.346
				c-0.236-0.23-0.353-0.508-0.353-0.834v-2.926c0-0.324,0.114-0.604,0.353-0.834c0.233-0.23,0.518-0.346,0.848-0.346h0.209
				c0.324,0,0.606,0.115,0.844,0.346c0.239,0.23,0.357,0.51,0.357,0.834V180.357z M404.327,180.146v-2.525
				c0-0.209-0.021-0.359-0.066-0.449c-0.062-0.139-0.188-0.211-0.376-0.211c-0.379,0-0.571,0.221-0.571,0.66v2.525
				c0,0.439,0.177,0.658,0.523,0.658C404.164,180.805,404.327,180.586,404.327,180.146 M408.173,177.773h-0.801
				c0-0.246-0.025-0.428-0.073-0.545c-0.077-0.18-0.229-0.268-0.448-0.268c-0.198-0.002-0.333,0.068-0.408,0.205
				c-0.054,0.1-0.081,0.256-0.081,0.473c0,0.287,0.021,0.498,0.067,0.627c0.073,0.23,0.229,0.346,0.458,0.346
				c0.331,0,0.631,0.115,0.894,0.342c0.262,0.23,0.393,0.504,0.393,0.832v0.645c0,0.324-0.116,0.604-0.354,0.832
				c-0.234,0.23-0.52,0.348-0.848,0.348h-0.212c-0.33,0-0.615-0.117-0.85-0.348c-0.236-0.229-0.354-0.51-0.354-0.834v-0.34h0.801
				c-0.006,0.541,0.166,0.811,0.521,0.811c0.202,0,0.341-0.072,0.416-0.221c0.048-0.092,0.071-0.258,0.071-0.486
				c0-0.576-0.17-0.865-0.512-0.865c-0.341,0-0.645-0.113-0.905-0.342c-0.265-0.229-0.395-0.504-0.395-0.828v-0.727
				c0-0.322,0.118-0.604,0.354-0.832c0.234-0.23,0.52-0.348,0.85-0.348h0.211c0.331,0,0.616,0.117,0.851,0.348
				c0.236,0.23,0.354,0.51,0.354,0.834V177.773z M412.476,180.734v0.732h-2.429v-5.111l2.429-0.008v0.73h-1.595v1.381h1.595v0.732
				h-1.595v1.543H412.476L412.476,180.734z M416.97,180.355c0,0.326-0.119,0.605-0.353,0.836c-0.234,0.23-0.52,0.346-0.851,0.346
				h-0.208c-0.332,0-0.612-0.115-0.849-0.346c-0.234-0.23-0.353-0.508-0.353-0.834v-2.926c0-0.324,0.116-0.604,0.353-0.834
				s0.517-0.346,0.849-0.346h0.208c0.331,0,0.616,0.115,0.851,0.348c0.233,0.229,0.351,0.51,0.351,0.834l0.002,0.811h-0.801v-0.227
				v-0.244c0-0.541-0.176-0.812-0.527-0.812c-0.321-0.002-0.481,0.221-0.481,0.658v2.525c0,0.439,0.172,0.66,0.52,0.66
				c0.327,0,0.489-0.223,0.489-0.662v-0.688h0.801V180.355L416.97,180.355z M419.99,180.357c0,0.326-0.119,0.604-0.356,0.834
				s-0.52,0.346-0.847,0.346h-0.206c-0.333,0-0.614-0.115-0.85-0.346s-0.354-0.508-0.354-0.834v-2.926
				c0-0.324,0.119-0.604,0.354-0.834s0.519-0.346,0.85-0.346h0.208c0.325,0,0.607,0.115,0.845,0.346s0.356,0.51,0.356,0.834V180.357
				L419.99,180.357z M419.189,180.146v-2.525c0-0.209-0.022-0.359-0.065-0.449c-0.063-0.139-0.188-0.211-0.377-0.211
				c-0.378,0-0.568,0.221-0.568,0.66v2.525c0,0.439,0.172,0.658,0.521,0.658C419.027,180.805,419.189,180.586,419.189,180.146
				 M422.946,181.467h-0.848l-0.841-2.789v2.789h-0.77l-0.023-5.111h0.852l0.86,2.857v-2.857h0.77V181.467L422.946,181.467z
				 M426.057,177.773h-0.804c0-0.246-0.023-0.428-0.071-0.545c-0.079-0.18-0.23-0.268-0.448-0.268
				c-0.2-0.002-0.335,0.068-0.408,0.205c-0.055,0.1-0.082,0.256-0.082,0.473c0,0.287,0.023,0.498,0.066,0.627
				c0.075,0.23,0.228,0.346,0.459,0.346c0.332,0,0.63,0.115,0.893,0.342c0.265,0.23,0.397,0.504,0.397,0.832v0.645
				c0,0.324-0.119,0.604-0.356,0.832c-0.235,0.23-0.519,0.348-0.852,0.348h-0.21c-0.331,0-0.615-0.117-0.851-0.348
				c-0.235-0.229-0.354-0.51-0.354-0.834v-0.34h0.8c-0.006,0.541,0.167,0.811,0.521,0.811c0.205,0,0.342-0.072,0.417-0.221
				c0.048-0.092,0.071-0.258,0.071-0.486c0-0.576-0.171-0.865-0.512-0.865s-0.642-0.113-0.906-0.342
				c-0.263-0.229-0.392-0.504-0.392-0.828v-0.727c0-0.322,0.117-0.604,0.353-0.832c0.235-0.23,0.52-0.348,0.851-0.348h0.21
				c0.333,0,0.616,0.117,0.854,0.348c0.235,0.23,0.354,0.51,0.354,0.834V177.773L426.057,177.773z M428.85,177.002h-0.809v4.465
				h-0.833v-4.465h-0.801l-0.008-0.654h2.444L428.85,177.002z M431.879,181.467h-0.802v-1.252c0-0.279-0.088-0.467-0.269-0.566
				c-0.121-0.068-0.333-0.102-0.637-0.098h-0.135v1.916h-0.835v-5.135l1.418-0.008c0.331,0,0.614,0.115,0.849,0.346
				c0.234,0.232,0.354,0.512,0.354,0.838v0.881c0,0.166-0.049,0.33-0.144,0.498c-0.098,0.188-0.218,0.309-0.36,0.365
				c0.148,0.066,0.28,0.176,0.393,0.328c0.111,0.15,0.166,0.299,0.166,0.453L431.879,181.467z M431.023,178.18v-0.49
				c0-0.26-0.035-0.43-0.103-0.516c-0.08-0.109-0.257-0.162-0.525-0.156h-0.355v1.818c0.316,0.006,0.483,0.008,0.497,0.008
				c0.199,0,0.331-0.066,0.399-0.199C430.993,178.547,431.023,178.389,431.023,178.18L431.023,178.18z M434.995,180.357
				c0,0.326-0.116,0.604-0.353,0.834c-0.235,0.23-0.518,0.346-0.848,0.346h-0.209c-0.324,0-0.608-0.115-0.844-0.346
				c-0.239-0.23-0.357-0.508-0.357-0.834v-4.059h0.799v3.846c0,0.438,0.175,0.66,0.523,0.66c0.325,0,0.486-0.223,0.486-0.66v-3.846
				h0.8L434.995,180.357L434.995,180.357z M438.08,180.363c0,0.32-0.112,0.596-0.343,0.826c-0.226,0.227-0.501,0.346-0.826,0.355
				v0.355c0.17,0.02,0.325,0.078,0.463,0.174c0.171,0.111,0.257,0.238,0.257,0.385c0,0.213-0.119,0.367-0.361,0.475
				c-0.174,0.078-0.388,0.119-0.641,0.119c-0.059,0-0.114-0.004-0.169-0.008l0.003-0.355c0.099,0.031,0.198,0.045,0.295,0.045
				c0.288,0,0.433-0.08,0.433-0.246c0-0.186-0.225-0.273-0.666-0.27v-0.67c-0.3-0.039-0.551-0.168-0.751-0.393
				c-0.205-0.221-0.308-0.484-0.308-0.785v-2.934c0-0.326,0.117-0.605,0.354-0.834c0.234-0.232,0.518-0.348,0.849-0.348h0.211
				c0.331,0,0.613,0.115,0.848,0.348c0.234,0.229,0.351,0.508,0.351,0.834v0.811h-0.799v-0.232v-0.236
				c0-0.543-0.176-0.814-0.527-0.814c-0.323,0-0.483,0.221-0.483,0.662v2.531c0,0.438,0.174,0.658,0.521,0.658
				c0.327,0,0.489-0.221,0.489-0.66v-0.688h0.799v0.896h0.002V180.363L438.08,180.363z M441.126,181.467h-0.831l-0.193-1.166h-0.613
				l-0.2,1.166h-0.831l0.921-5.119l0.857,0.008L441.126,181.467z M441.286,174.922c-0.241,0.662-0.506,0.992-0.793,0.992
				c-0.198,0-0.394-0.102-0.59-0.307c-0.195-0.205-0.327-0.307-0.397-0.307c-0.106,0-0.204,0.074-0.295,0.227
				c-0.054,0.123-0.111,0.244-0.169,0.363h-0.464c0.204-0.645,0.512-0.969,0.93-0.969c0.188,0,0.377,0.104,0.57,0.307
				c0.19,0.207,0.33,0.307,0.415,0.307c0.103,0,0.225-0.203,0.369-0.613H441.286L441.286,174.922z M439.972,179.482l-0.168-1.246
				l-0.169,1.246H439.972z M444.169,180.357c0,0.326-0.116,0.604-0.355,0.834c-0.235,0.23-0.521,0.346-0.846,0.346h-0.209
				c-0.33,0-0.614-0.115-0.848-0.346c-0.236-0.23-0.353-0.508-0.353-0.834v-2.926c0-0.324,0.114-0.604,0.353-0.834
				c0.233-0.23,0.518-0.346,0.848-0.346h0.209c0.324,0,0.608,0.115,0.846,0.346c0.239,0.23,0.355,0.51,0.355,0.834V180.357z
				 M443.368,180.146v-2.525c0-0.209-0.021-0.359-0.063-0.449c-0.065-0.139-0.19-0.211-0.377-0.211c-0.379,0-0.571,0.221-0.571,0.66
				v2.525c0,0.439,0.175,0.658,0.524,0.658C443.206,180.805,443.368,180.586,443.368,180.146 M448.777,181.467h-0.829l-0.193-1.166
				h-0.614l-0.2,1.166h-0.831l0.922-5.119l0.856,0.008L448.777,181.467z M447.622,179.482l-0.168-1.246l-0.168,1.246H447.622z
				 M453.326,177.773h-0.798c0-0.246-0.025-0.428-0.072-0.545c-0.081-0.18-0.229-0.268-0.449-0.268
				c-0.198-0.002-0.334,0.068-0.409,0.205c-0.056,0.1-0.081,0.256-0.081,0.473c0,0.287,0.021,0.498,0.065,0.627
				c0.075,0.23,0.229,0.346,0.458,0.346c0.333,0,0.632,0.115,0.895,0.342c0.263,0.23,0.394,0.504,0.394,0.832v0.645
				c0,0.324-0.117,0.604-0.354,0.832c-0.235,0.23-0.518,0.348-0.851,0.348h-0.21c-0.331,0-0.616-0.117-0.85-0.348
				c-0.237-0.229-0.355-0.51-0.355-0.834v-0.34h0.801c-0.006,0.541,0.168,0.811,0.52,0.811c0.204,0,0.343-0.072,0.418-0.221
				c0.047-0.092,0.074-0.258,0.074-0.486c0-0.576-0.171-0.865-0.514-0.865c-0.342,0-0.644-0.113-0.906-0.342
				c-0.265-0.229-0.395-0.504-0.395-0.828v-0.727c0-0.322,0.118-0.604,0.354-0.832c0.234-0.23,0.52-0.348,0.851-0.348h0.212
				c0.331,0,0.615,0.117,0.849,0.348c0.235,0.23,0.354,0.51,0.354,0.834V177.773L453.326,177.773z M456.09,180.734v0.732h-2.426
				v-5.111l2.426-0.008v0.73h-1.593v1.381h1.593v0.732h-1.593v1.543H456.09L456.09,180.734z M459.049,180.355
				c0,0.326-0.119,0.605-0.354,0.836c-0.235,0.23-0.52,0.346-0.851,0.346h-0.208c-0.331,0-0.612-0.115-0.849-0.346
				c-0.235-0.23-0.354-0.508-0.354-0.834v-2.926c0-0.324,0.118-0.604,0.354-0.834c0.236-0.23,0.518-0.346,0.849-0.346h0.208
				c0.331,0,0.615,0.115,0.851,0.348c0.234,0.229,0.354,0.51,0.354,0.834v0.811h-0.804c0-0.045,0-0.123,0-0.227
				c0-0.105,0-0.186,0-0.244c0-0.541-0.175-0.812-0.527-0.812c-0.318-0.002-0.481,0.221-0.481,0.658v2.525
				c0,0.439,0.175,0.66,0.523,0.66c0.325,0,0.485-0.223,0.485-0.662v-0.688h0.804V180.355L459.049,180.355z M462.069,180.357
				c0,0.326-0.119,0.604-0.357,0.834c-0.236,0.23-0.52,0.346-0.845,0.346h-0.208c-0.331,0-0.615-0.115-0.851-0.346
				c-0.233-0.23-0.351-0.508-0.351-0.834v-2.926c0-0.324,0.117-0.604,0.351-0.834c0.235-0.23,0.52-0.346,0.851-0.346h0.208
				c0.325,0,0.606,0.115,0.845,0.346s0.357,0.51,0.357,0.834V180.357z M461.265,180.146v-2.525c0-0.209-0.02-0.359-0.063-0.449
				c-0.063-0.139-0.189-0.211-0.376-0.211c-0.379,0-0.572,0.221-0.572,0.66v2.525c0,0.439,0.178,0.658,0.521,0.658
				c0.328,0,0.488-0.219,0.488-0.658H461.265z M372.513,178.18v-0.49c0-0.26-0.036-0.43-0.103-0.516
				c-0.08-0.109-0.257-0.162-0.523-0.156h-0.359v1.818c0.319,0.006,0.485,0.008,0.501,0.008c0.197,0,0.329-0.066,0.399-0.199
				C372.481,178.547,372.513,178.389,372.513,178.18L372.513,178.18z"/>
		</g>
	</g>
</g>
</svg>
